<svg width="20" height="20" viewBox="0 0 20 20" fill="none"
    xmlns="http://www.w3.org/2000/svg">
    <g clip-path="url(#clip0_14_1294)">
        <path d="M12.1498 18.1013H8.30563L7.86828 15.8455H5.15205L4.71469 18.1013H1.05469L3.67883 3.80664H9.52563L12.1498 18.1013ZM7.43092 13.1523L6.62526 8.04211H6.46413L5.65847 13.1523H7.43092Z" stroke="#888888"></path>
        <path d="M17.4903 3.80664H13.5771V18.1013H17.4903V3.80664Z" stroke="#888888"></path>
        <mask id="mask0_14_1294" style="mask-type:luminance" maskUnits="userSpaceOnUse" x="6" y="0" width="21" height="20">
            <path d="M16.6266 0.00350988L6.97803 9.84375L16.8183 19.4923L26.4668 9.65207L16.6266 0.00350988Z" stroke="#888888"></path>
        </mask>
        <g mask="url(#mask0_14_1294)">
            <path d="M14.7219 3.91233L14.8299 14.8991L18.7149 14.8609L18.609 4.09213L16.632 0.00825376L14.7219 3.91233ZM18.281 14.4355L15.2553 14.4652L15.1592 4.68853L15.3838 4.90622L15.8065 4.47173L16.2438 4.89717L16.6711 4.46324L17.1063 4.89177L17.5245 4.45487L17.9687 4.88023L18.1848 4.65719L18.281 14.4355ZM18.1324 4.09379L17.9573 4.27443L17.5112 3.84721L17.0972 4.27979L16.6664 3.85554L16.2373 4.29131L15.7981 3.86408L15.3748 4.29917L15.1532 4.08445L15.1525 4.00974L16.0974 2.07838L16.6448 2.43559L17.1599 2.08482L18.1324 4.09379ZM16.6397 1.91931L16.2877 1.68959L16.6299 0.990098L16.9707 1.69393L16.6397 1.91931Z" stroke="#888888"></path>
            <path d="M14.8359 15.545L18.7114 15.5068L18.7072 15.0772L14.8316 15.1153L14.8359 15.545Z" stroke="#888888"></path>
            <path d="M14.8521 17.1728C14.8573 17.7 15.2905 18.1248 15.8178 18.1196L17.7798 18.1003C18.0352 18.0978 18.2744 17.996 18.4532 17.8136C18.632 17.6312 18.7291 17.3901 18.7266 17.1347L18.7127 15.7235L14.8383 15.7616L14.8521 17.1728ZM18.297 17.1389C18.2984 17.2796 18.2449 17.4123 18.1465 17.5128C18.048 17.6132 17.9163 17.6693 17.7756 17.6707L15.8136 17.69C15.5232 17.6929 15.2846 17.4589 15.2818 17.1686L15.2721 16.1871L18.2874 16.1574L18.297 17.1389Z" stroke="#888888"></path>
        </g>
    </g>
    <defs>
        <clipPath id="clip0_14_1294">
            <rect width="20" height="20" stroke="#888888"></rect>
        </clipPath>
    </defs>
</svg>