<svg width="20" height="20" viewBox="0 0 20 20" fill="none"
    xmlns="http://www.w3.org/2000/svg">
    <path d="M7.11086 10.2878V13.7208" stroke="#888888" stroke-linecap="round" stroke-linejoin="round"></path>
    <path d="M8.86244 12.0045H5.35974" stroke="#888888" stroke-linecap="round" stroke-linejoin="round"></path>
    <path d="M13.0856 10.3924H12.9875" stroke="#888888" stroke-linecap="round" stroke-linejoin="round"></path>
    <path d="M14.748 13.6691H14.6499" stroke="#888888" stroke-linecap="round" stroke-linejoin="round"></path>
    <path d="M6.39948 0.833328C6.39948 1.5121 6.96092 2.06236 7.65349 2.06236H8.62193C9.69042 2.06617 10.5559 2.9144 10.5608 3.9616V4.5804" stroke="#888888" stroke-linecap="round" stroke-linejoin="round"></path>
    <path fill-rule="evenodd" clip-rule="evenodd" d="M14.0593 19.1324C11.3045 19.1791 8.60026 19.1771 5.94166 19.1324C2.99069 19.1324 0.833313 17.0275 0.833313 14.1354V9.87325C0.833313 6.98107 2.99069 4.8762 5.94166 4.8762C8.61483 4.83051 11.321 4.83146 14.0593 4.8762C17.0102 4.8762 19.1666 6.98203 19.1666 9.87325V14.1354C19.1666 17.0275 17.0102 19.1324 14.0593 19.1324Z" stroke="#888888" stroke-linecap="round" stroke-linejoin="round"></path>
</svg>