<svg width="18" height="18" viewBox="0 0 18 18" fill="none"
    xmlns="http://www.w3.org/2000/svg">
    <path fill-rule="evenodd" clip-rule="evenodd" d="M10.0122 1.82893L11.6874 5.17545C11.8515 5.50399 12.1684 5.73179 12.5359 5.78451L16.2832 6.32391C17.2091 6.45758 17.5775 7.57968 16.9075 8.22262L14.1977 10.8264C13.9314 11.0825 13.8101 11.4505 13.8731 11.812L14.5126 15.488C14.6701 16.3974 13.7023 17.0911 12.8747 16.6609L9.52545 14.9241C9.1971 14.7537 8.80385 14.7537 8.47455 14.9241L5.12525 16.6609C4.29771 17.0911 3.32986 16.3974 3.48831 15.488L4.12686 11.812C4.18986 11.4505 4.06864 11.0825 3.80233 10.8264L1.09254 8.22262C0.422489 7.57968 0.790922 6.45758 1.71678 6.32391L5.4641 5.78451C5.83158 5.73179 6.14942 5.50399 6.31359 5.17545L7.98776 1.82893C8.40201 1.00148 9.59799 1.00148 10.0122 1.82893Z" stroke="#888888" stroke-linecap="round" stroke-linejoin="round"></path>
</svg>