<svg width="20" height="20" viewBox="0 0 20 20" fill="none"
    xmlns="http://www.w3.org/2000/svg">
    <path fill-rule="evenodd" clip-rule="evenodd" d="M14.8381 11.7317C15.4566 11.7317 15.9757 12.2422 15.8811 12.853C15.3263 16.4463 12.2502 19.1143 8.54009 19.1143C4.43536 19.1143 1.10834 15.7873 1.10834 11.6835C1.10834 8.30245 3.67693 5.15297 6.56878 4.44087C7.19018 4.28745 7.82702 4.72455 7.82702 5.36429C7.82702 9.69868 7.97272 10.8199 8.79579 11.4297C9.61886 12.0396 10.5867 11.7317 14.8381 11.7317Z" stroke="#888888" stroke-linecap="round" stroke-linejoin="round"></path>
    <path fill-rule="evenodd" clip-rule="evenodd" d="M18.8848 8.12229C18.934 5.33755 15.5134 0.848777 11.345 0.92597C11.0208 0.93176 10.7612 1.20194 10.7468 1.52518C10.6416 3.81492 10.7834 6.78202 10.8626 8.12711C10.8867 8.54588 11.2157 8.87492 11.6335 8.89904C13.0162 8.97816 16.0914 9.08623 18.3483 8.74465C18.6552 8.69834 18.88 8.43202 18.8848 8.12229Z" stroke="#888888" stroke-linecap="round" stroke-linejoin="round"></path>
</svg>