<svg class="brand-title" width="47" height="16" viewBox="0 0 47 16" fill="none"
    xmlns="http://www.w3.org/2000/svg">
    <path d="M8.36 15.2C7.2933 15.2 6.3 15.0267 5.38 14.68C4.4733 14.32 3.68 13.82 3 13.18C2.3333 12.5267 1.8133 11.76 1.44 10.88C1.0667 9.99999 0.880005 9.03999 0.880005 7.99999C0.880005 6.95999 1.0667 5.99999 1.44 5.11999C1.8133 4.23999 2.34 3.47999 3.02 2.83999C3.7 2.18666 4.49331 1.68666 5.40001 1.33999C6.30671 0.979988 7.3 0.799988 8.38 0.799988C9.5267 0.799988 10.5733 0.999988 11.52 1.39999C12.4667 1.78666 13.2667 2.36666 13.92 3.13999L12.24 4.71999C11.7333 4.17332 11.1667 3.76666 10.54 3.49999C9.9133 3.21999 9.2333 3.07999 8.5 3.07999C7.7667 3.07999 7.0933 3.19999 6.48 3.43999C5.88 3.67999 5.35331 4.01999 4.90001 4.45999C4.46001 4.89999 4.1133 5.41999 3.86 6.01999C3.62 6.61999 3.5 7.27999 3.5 7.99999C3.5 8.71999 3.62 9.37999 3.86 9.97999C4.1133 10.58 4.46001 11.1 4.90001 11.54C5.35331 11.98 5.88 12.32 6.48 12.56C7.0933 12.8 7.7667 12.92 8.5 12.92C9.2333 12.92 9.9133 12.7867 10.54 12.52C11.1667 12.24 11.7333 11.82 12.24 11.26L13.92 12.86C13.2667 13.62 12.4667 14.2 11.52 14.6C10.5733 15 9.52 15.2 8.36 15.2ZM16.4113 15V0.999988H22.1713C23.4113 0.999988 24.4713 1.19999 25.3513 1.59999C26.2446 1.99999 26.9313 2.57332 27.4113 3.31999C27.8913 4.06666 28.1313 4.95332 28.1313 5.97999C28.1313 7.00669 27.8913 7.89329 27.4113 8.63999C26.9313 9.37329 26.2446 9.93999 25.3513 10.34C24.4713 10.7267 23.4113 10.92 22.1713 10.92H17.8513L19.0113 9.73999V15H16.4113ZM25.5713 15L22.0313 9.91999H24.8112L28.3713 15H25.5713ZM19.0113 10.02L17.8513 8.77999H22.0513C23.1979 8.77999 24.0579 8.53329 24.6312 8.03999C25.2179 7.54669 25.5113 6.85999 25.5113 5.97999C25.5113 5.08666 25.2179 4.39999 24.6312 3.91999C24.0579 3.43999 23.1979 3.19999 22.0513 3.19999H17.8513L19.0113 1.91999V10.02ZM31.0402 15V0.999988H33.1802L39.3002 11.22H38.1802L44.2002 0.999988H46.3402L46.3602 15H43.9002L43.8802 4.85999H44.4002L39.2802 13.4H38.1202L32.9202 4.85999H33.5202V15H31.0402Z" fill="white"></path>
</svg>