<svg width="22" height="22" viewBox="0 0 22 22" fill="none"
    xmlns="http://www.w3.org/2000/svg">
    <path fill-rule="evenodd" clip-rule="evenodd" d="M16.3691 18.7157C18.086 18.7157 19.4784 17.3242 19.4793 15.6073V15.6055V13.1305C18.3454 13.1305 17.4269 12.212 17.426 11.078C17.426 9.94504 18.3445 9.02562 19.4784 9.02562H19.4793V6.55062C19.4812 4.83279 18.0906 3.43946 16.3737 3.43762H16.3682H5.63216C3.91433 3.43762 2.52191 4.82912 2.521 6.54696V6.54787V9.10537C3.6155 9.06687 4.53308 9.92304 4.57158 11.0175C4.5725 11.0377 4.57341 11.0579 4.57341 11.078C4.57433 12.2101 3.65858 13.1286 2.5265 13.1305H2.521V15.6055C2.52008 17.3224 3.9125 18.7157 5.62941 18.7157H5.63033H16.3691Z" stroke="#888888" stroke-linecap="round" stroke-linejoin="round"></path>
    <path fill-rule="evenodd" clip-rule="evenodd" d="M11.3403 8.30788L11.905 9.45096C11.96 9.5628 12.0663 9.64071 12.1901 9.65905L13.4523 9.8433C13.7649 9.88913 13.8887 10.2723 13.6632 10.4914L12.7502 11.3805C12.6603 11.4676 12.62 11.5932 12.6402 11.717L12.8556 12.9728C12.9087 13.2835 12.5833 13.52 12.3047 13.3734L11.1762 12.7803C11.0653 12.7216 10.9333 12.7216 10.8224 12.7803L9.69491 13.3734C9.41533 13.52 9.08991 13.2835 9.14308 12.9728L9.3585 11.717C9.37958 11.5932 9.33833 11.4676 9.2485 11.3805L8.33641 10.4914C8.11091 10.2723 8.23466 9.88913 8.54633 9.8433L9.80858 9.65905C9.93233 9.64071 10.0396 9.5628 10.0946 9.45096L10.6583 8.30788C10.7977 8.02555 11.201 8.02555 11.3403 8.30788Z" stroke="#888888" stroke-linecap="round" stroke-linejoin="round"></path>
</svg>