<svg width="22" height="22" viewBox="0 0 22 22" fill="none"
    xmlns="http://www.w3.org/2000/svg">
    <path fill-rule="evenodd" clip-rule="evenodd" d="M2.75 5.95833C2.75 3.55189 2.77577 2.75 5.95833 2.75C9.1409 2.75 9.16667 3.55189 9.16667 5.95833C9.16667 8.36478 9.17682 9.16667 5.95833 9.16667C2.73985 9.16667 2.75 8.36478 2.75 5.95833Z" stroke="#888888" stroke-linecap="round" stroke-linejoin="round"></path>
    <path fill-rule="evenodd" clip-rule="evenodd" d="M12.8333 5.95833C12.8333 3.55189 12.8591 2.75 16.0416 2.75C19.2242 2.75 19.25 3.55189 19.25 5.95833C19.25 8.36478 19.2601 9.16667 16.0416 9.16667C12.8232 9.16667 12.8333 8.36478 12.8333 5.95833Z" stroke="#888888" stroke-linecap="round" stroke-linejoin="round"></path>
    <path fill-rule="evenodd" clip-rule="evenodd" d="M2.75 16.0417C2.75 13.6352 2.77577 12.8333 5.95833 12.8333C9.1409 12.8333 9.16667 13.6352 9.16667 16.0417C9.16667 18.4481 9.17682 19.25 5.95833 19.25C2.73985 19.25 2.75 18.4481 2.75 16.0417Z" stroke="#888888" stroke-linecap="round" stroke-linejoin="round"></path>
    <path fill-rule="evenodd" clip-rule="evenodd" d="M12.8333 16.0417C12.8333 13.6352 12.8591 12.8333 16.0416 12.8333C19.2242 12.8333 19.25 13.6352 19.25 16.0417C19.25 18.4481 19.2601 19.25 16.0416 19.25C12.8232 19.25 12.8333 18.4481 12.8333 16.0417Z" stroke="#888888" stroke-linecap="round" stroke-linejoin="round"></path>
</svg>